<svg width="80" height="80" viewBox="0 0 80 80" fill="none" xmlns="http://www.w3.org/2000/svg">
  <defs>
    <linearGradient id="primaryGradient" x1="0%" y1="0%" x2="100%" y2="100%">
      <stop offset="0%" style="stop-color:#1e3a8a;stop-opacity:1" />
      <stop offset="100%" style="stop-color:#059669;stop-opacity:1" />
    </linearGradient>
    <linearGradient id="accentGradient" x1="0%" y1="0%" x2="100%" y2="100%">
      <stop offset="0%" style="stop-color:#06b6d4;stop-opacity:1" />
      <stop offset="100%" style="stop-color:#a78bfa;stop-opacity:1" />
    </linearGradient>
  </defs>
  
  <!-- Background Circle -->
  <circle cx="40" cy="40" r="38" fill="url(#primaryGradient)" stroke="url(#accentGradient)" stroke-width="2"/>
  
  <!-- Medical Cross with Modern Twist -->
  <g transform="translate(40, 40)">
    <!-- Vertical bar -->
    <rect x="-3" y="-20" width="6" height="40" rx="3" fill="white" opacity="0.9"/>
    <!-- Horizontal bar -->
    <rect x="-15" y="-3" width="30" height="6" rx="3" fill="white" opacity="0.9"/>
    
    <!-- Heart symbol integrated -->
    <path d="M-8,-12 C-12,-16 -18,-16 -18,-10 C-18,-6 -8,0 0,4 C8,0 18,-6 18,-10 C18,-16 12,-16 8,-12 C4,-8 0,-8 0,-8 C0,-8 -4,-8 -8,-12 Z" 
          fill="url(#accentGradient)" opacity="0.8" transform="scale(0.6)"/>
  </g>
  
  <!-- Subtle pulse effect circles -->
  <circle cx="40" cy="40" r="32" fill="none" stroke="white" stroke-width="1" opacity="0.3"/>
  <circle cx="40" cy="40" r="28" fill="none" stroke="white" stroke-width="1" opacity="0.2"/>
</svg>
